#Comment line ignore any data following # character 
#Hierarchical Translation and Rotation (.htr) file 
[Header]	
#Header keywords are followed by a single value 
FileType HTR		#Single word string
DataType HTRS		#Translation followed by rotation and scale data
FileVersion 1		#integer
NumSegments 84		#integer
NumFrames 2		#integer
DataFrameRate 30		#integer, data frame rate in this file
EulerRotationOrder ZYX
CalibrationUnits mm
RotationUnits Degrees
GlobalAxisofGravity Y
BoneLengthAxis Y
ScaleFactor 1.00
[SegmentNames&Hierarchy]
#CHILD	PARENT
MASTER GLOBAL
root MASTER
chest root
L_mid_tent01 root
R_mid_tent01 root
spine01 root
Bip01_Neck chest
L_humerus chest
R_humerus chest
weapon_bone chest
Bip01_Head Bip01_Neck
eye_left_bone Bip01_Head
eye_right_bone Bip01_Head
L_forearm L_humerus
L_front_hand L_forearm
L_weapon_bone L_forearm
L_front_hand01_01 L_front_hand
L_front_hand02_01 L_front_hand
L_front_hand03_01 L_front_hand
L_front_hand01_02 L_front_hand01_01
L_front_hand02_02 L_front_hand02_01
L_front_hand03_02 L_front_hand03_01
R_forearm R_humerus
R_front_hand R_forearm
R_weapon_bone R_forearm
R_front_hand01_01 R_front_hand
R_front_hand02_01 R_front_hand
R_front_hand03_01 R_front_hand
R_front_hand01_02 R_front_hand01_01
R_front_hand02_02 R_front_hand02_01
R_front_hand03_02 R_front_hand03_01
null_rope01_connect L_mid_tent01
Rope1_Seg01 null_rope01_connect
Rope1_Seg02 Rope1_Seg01
Rope1_Seg03 Rope1_Seg02
Rope1_Seg04 Rope1_Seg03
Rope1_Seg05 Rope1_Seg04
Rope1_Seg06 Rope1_Seg05
Rope1_Seg07 Rope1_Seg06
Rope1_Seg09 Rope1_Seg07
L_mid_hand01 Rope1_Seg09
L_mid_hand02 Rope1_Seg09
L_mid_hand03 Rope1_Seg09
null_rope02_connect R_mid_tent01
Rope2_Seg01 null_rope02_connect
Rope2_Seg02 Rope2_Seg01
Rope2_Seg03 Rope2_Seg02
Rope2_Seg04 Rope2_Seg03
Rope2_Seg05 Rope2_Seg04
Rope2_Seg06 Rope2_Seg05
Rope2_Seg07 Rope2_Seg06
Rope2_Seg09 Rope2_Seg07
R_mid_hand01 Rope2_Seg09
R_mid_hand02 Rope2_Seg09
R_mid_hand03 Rope2_Seg09
spine02 spine01
spine03 spine02
pelvis spine03
null_rope03_connect pelvis
null_rope04_connect pelvis
Rope3_Seg01 null_rope03_connect
Rope3_Seg02 Rope3_Seg01
Rope3_Seg03 Rope3_Seg02
Rope3_Seg04 Rope3_Seg03
Rope3_Seg05 Rope3_Seg04
Rope3_Seg06 Rope3_Seg05
Rope3_Seg07 Rope3_Seg06
Rope3_Seg08 Rope3_Seg07
Rope3_Seg09 Rope3_Seg08
R_rear_hand01 Rope3_Seg09
R_rear_hand02 Rope3_Seg09
R_rear_hand03 Rope3_Seg09
Rope4_Seg01 null_rope04_connect
Rope4_Seg02 Rope4_Seg01
Rope4_Seg03 Rope4_Seg02
Rope4_Seg04 Rope4_Seg03
Rope4_Seg05 Rope4_Seg04
Rope4_Seg06 Rope4_Seg05
Rope4_Seg07 Rope4_Seg06
Rope4_Seg08 Rope4_Seg07
Rope4_Seg09 Rope4_Seg08
L_rear_hand01 Rope4_Seg09
L_rear_hand02 Rope4_Seg09
L_rear_hand03 Rope4_Seg09
[BasePosition]
#SegmentName Tx, Ty, Tz, Rx, Ry, Rz, BoneLength
MASTER 0.000000 0.000000 0.000000 -90.000000 0.000000 0.000000 10.000000 
root 0.000000 0.000000 0.000000 0.000000 0.000000 0.000000 10.000000 
chest 0.000000 0.000000 0.000000 0.000000 0.000000 0.000000 10.000000 
L_mid_tent01 0.000000 0.000000 0.000000 0.000000 0.000000 0.000000 10.000000 
R_mid_tent01 0.000000 0.000000 0.000000 0.000000 0.000000 0.000000 10.000000 
spine01 0.000000 0.000000 0.000000 0.000000 0.000000 0.000000 10.000000 
Bip01_Neck 0.000000 0.000000 0.000000 0.000000 0.000000 0.000000 10.000000 
L_humerus 0.000000 0.000000 0.000000 0.000000 0.000000 0.000000 10.000000 
R_humerus 0.000000 0.000000 0.000000 0.000000 0.000000 0.000000 10.000000 
weapon_bone 0.000000 0.000000 0.000000 0.000000 0.000000 0.000000 10.000000 
Bip01_Head 0.000000 0.000000 0.000000 0.000000 0.000000 0.000000 10.000000 
eye_left_bone 0.000000 0.000000 0.000000 0.000000 0.000000 0.000000 10.000000 
eye_right_bone 0.000000 0.000000 0.000000 0.000000 0.000000 0.000000 10.000000 
L_forearm 0.000000 0.000000 0.000000 0.000000 0.000000 0.000000 10.000000 
L_front_hand 0.000000 0.000000 0.000000 0.000000 0.000000 0.000000 10.000000 
L_weapon_bone 0.000000 0.000000 0.000000 0.000000 0.000000 0.000000 10.000000 
L_front_hand01_01 0.000000 0.000000 0.000000 0.000000 0.000000 0.000000 10.000000 
L_front_hand02_01 0.000000 0.000000 0.000000 0.000000 0.000000 0.000000 10.000000 
L_front_hand03_01 0.000000 0.000000 0.000000 0.000000 0.000000 0.000000 10.000000 
L_front_hand01_02 0.000000 0.000000 0.000000 0.000000 0.000000 0.000000 10.000000 
L_front_hand02_02 0.000000 0.000000 0.000000 0.000000 0.000000 0.000000 10.000000 
L_front_hand03_02 0.000000 0.000000 0.000000 0.000000 0.000000 0.000000 10.000000 
R_forearm 0.000000 0.000000 0.000000 0.000000 0.000000 0.000000 10.000000 
R_front_hand 0.000000 0.000000 0.000000 0.000000 0.000000 0.000000 10.000000 
R_weapon_bone 0.000000 0.000000 0.000000 0.000000 0.000000 0.000000 10.000000 
R_front_hand01_01 0.000000 0.000000 0.000000 0.000000 0.000000 0.000000 10.000000 
R_front_hand02_01 0.000000 0.000000 0.000000 0.000000 0.000000 0.000000 10.000000 
R_front_hand03_01 0.000000 0.000000 0.000000 0.000000 0.000000 0.000000 10.000000 
R_front_hand01_02 0.000000 0.000000 0.000000 0.000000 0.000000 0.000000 10.000000 
R_front_hand02_02 0.000000 0.000000 0.000000 0.000000 0.000000 0.000000 10.000000 
R_front_hand03_02 0.000000 0.000000 0.000000 0.000000 0.000000 0.000000 10.000000 
null_rope01_connect 0.000000 0.000000 0.000000 0.000000 0.000000 0.000000 10.000000 
Rope1_Seg01 0.000000 0.000000 0.000000 0.000000 0.000000 0.000000 10.000000 
Rope1_Seg02 0.000000 0.000000 0.000000 0.000000 0.000000 0.000000 10.000000 
Rope1_Seg03 0.000000 0.000000 0.000000 0.000000 0.000000 0.000000 10.000000 
Rope1_Seg04 0.000000 0.000000 0.000000 0.000000 0.000000 0.000000 10.000000 
Rope1_Seg05 0.000000 0.000000 0.000000 0.000000 0.000000 0.000000 10.000000 
Rope1_Seg06 0.000000 0.000000 0.000000 0.000000 0.000000 0.000000 10.000000 
Rope1_Seg07 0.000000 0.000000 0.000000 0.000000 0.000000 0.000000 10.000000 
Rope1_Seg09 0.000000 0.000000 0.000000 0.000000 0.000000 0.000000 10.000000 
L_mid_hand01 0.000000 0.000000 0.000000 0.000000 0.000000 0.000000 10.000000 
L_mid_hand02 0.000000 0.000000 0.000000 0.000000 0.000000 0.000000 10.000000 
L_mid_hand03 0.000000 0.000000 0.000000 0.000000 0.000000 0.000000 10.000000 
null_rope02_connect 0.000000 0.000000 0.000000 0.000000 0.000000 0.000000 10.000000 
Rope2_Seg01 0.000000 0.000000 0.000000 0.000000 0.000000 0.000000 10.000000 
Rope2_Seg02 0.000000 0.000000 0.000000 0.000000 0.000000 0.000000 10.000000 
Rope2_Seg03 0.000000 0.000000 0.000000 0.000000 0.000000 0.000000 10.000000 
Rope2_Seg04 0.000000 0.000000 0.000000 0.000000 0.000000 0.000000 10.000000 
Rope2_Seg05 0.000000 0.000000 0.000000 0.000000 0.000000 0.000000 10.000000 
Rope2_Seg06 0.000000 0.000000 0.000000 0.000000 0.000000 0.000000 10.000000 
Rope2_Seg07 0.000000 0.000000 0.000000 0.000000 0.000000 0.000000 10.000000 
Rope2_Seg09 0.000000 0.000000 0.000000 0.000000 0.000000 0.000000 10.000000 
R_mid_hand01 0.000000 0.000000 0.000000 0.000000 0.000000 0.000000 10.000000 
R_mid_hand02 0.000000 0.000000 0.000000 0.000000 0.000000 0.000000 10.000000 
R_mid_hand03 0.000000 0.000000 0.000000 0.000000 0.000000 0.000000 10.000000 
spine02 0.000000 0.000000 0.000000 0.000000 0.000000 0.000000 10.000000 
spine03 0.000000 0.000000 0.000000 0.000000 0.000000 0.000000 10.000000 
pelvis 0.000000 0.000000 0.000000 0.000000 0.000000 0.000000 10.000000 
null_rope03_connect 0.000000 0.000000 0.000000 0.000000 0.000000 0.000000 10.000000 
null_rope04_connect 0.000000 0.000000 0.000000 0.000000 0.000000 0.000000 10.000000 
Rope3_Seg01 0.000000 0.000000 0.000000 0.000000 0.000000 0.000000 10.000000 
Rope3_Seg02 0.000000 0.000000 0.000000 0.000000 0.000000 0.000000 10.000000 
Rope3_Seg03 0.000000 0.000000 0.000000 0.000000 0.000000 0.000000 10.000000 
Rope3_Seg04 0.000000 0.000000 0.000000 0.000000 0.000000 0.000000 10.000000 
Rope3_Seg05 0.000000 0.000000 0.000000 0.000000 0.000000 0.000000 10.000000 
Rope3_Seg06 0.000000 0.000000 0.000000 0.000000 0.000000 0.000000 10.000000 
Rope3_Seg07 0.000000 0.000000 0.000000 0.000000 0.000000 0.000000 10.000000 
Rope3_Seg08 0.000000 0.000000 0.000000 0.000000 0.000000 0.000000 10.000000 
Rope3_Seg09 0.000000 0.000000 0.000000 0.000000 0.000000 0.000000 10.000000 
R_rear_hand01 0.000000 0.000000 0.000000 0.000000 0.000000 0.000000 10.000000 
R_rear_hand02 0.000000 0.000000 0.000000 0.000000 0.000000 0.000000 10.000000 
R_rear_hand03 0.000000 0.000000 0.000000 0.000000 0.000000 0.000000 10.000000 
Rope4_Seg01 0.000000 0.000000 0.000000 0.000000 0.000000 0.000000 10.000000 
Rope4_Seg02 0.000000 0.000000 0.000000 0.000000 0.000000 0.000000 10.000000 
Rope4_Seg03 0.000000 0.000000 0.000000 0.000000 0.000000 0.000000 10.000000 
Rope4_Seg04 0.000000 0.000000 0.000000 0.000000 0.000000 0.000000 10.000000 
Rope4_Seg05 0.000000 0.000000 0.000000 0.000000 0.000000 0.000000 10.000000 
Rope4_Seg06 0.000000 0.000000 0.000000 0.000000 0.000000 0.000000 10.000000 
Rope4_Seg07 0.000000 0.000000 0.000000 0.000000 0.000000 0.000000 10.000000 
Rope4_Seg08 0.000000 0.000000 0.000000 0.000000 0.000000 0.000000 10.000000 
Rope4_Seg09 0.000000 0.000000 0.000000 0.000000 0.000000 0.000000 10.000000 
L_rear_hand01 0.000000 0.000000 0.000000 0.000000 0.000000 0.000000 10.000000 
L_rear_hand02 0.000000 0.000000 0.000000 0.000000 0.000000 0.000000 10.000000 
L_rear_hand03 0.000000 0.000000 0.000000 0.000000 0.000000 0.000000 10.000000 
#Beginning of Data. Separated by tabs
#Fr	Tx	Ty	Tz	Rx	Ry	Rz	SF
[MASTER]
27 0.000000 0.000000 0.000000 0.001660 0.001660 0.001660 0.000000
28 0.000000 0.000000 0.000000 0.001660 0.001660 0.001660 0.000000
[root]
27 -16.502295 -51.542828 1491.924927 -92.200737 -25.119688 -89.046539 1492.906128
28 -16.502298 -26.728800 1474.159790 -92.006775 -19.605328 -89.225731 1474.494507
[chest]
27 -84.512650 -34.090519 0.000000 -2.313071 -0.937728 177.504044 91.129311
28 -84.512650 -34.090519 0.000000 -2.225147 -0.611928 174.086380 91.129311
[L_mid_tent01]
27 27.299118 22.179060 -249.918686 -15.962215 23.960188 35.658611 252.381668
28 27.299110 22.179075 -249.918701 -18.121611 20.190887 27.799599 252.381683
[R_mid_tent01]
27 23.228794 24.509907 226.238495 -172.028671 -32.171745 42.990738 228.744751
28 23.228794 24.509907 226.238495 -169.070755 -27.674538 36.210953 228.744751
[spine01]
27 -0.361383 -0.195265 0.000000 0.001893 0.001387 17.528215 0.410763
28 -0.361383 -0.195265 0.000000 0.001914 0.001359 19.221594 0.410763
[Bip01_Neck]
27 165.484543 71.581718 0.000119 176.643677 -1.657967 43.431911 180.302734
28 165.484543 71.581718 0.000119 176.643677 -1.657967 43.431911 180.302734
[L_humerus]
27 -13.983130 -135.272980 -120.471481 145.383286 78.244476 -124.806366 181.680161
28 -13.983130 -135.272980 -120.471481 86.109756 85.860191 175.670715 181.680161
[R_humerus]
27 -13.983309 -135.273102 125.287651 -175.427673 -76.017616 -89.487808 184.909012
28 -13.983309 -135.273102 125.287651 149.784393 -85.793648 -54.536057 184.909012
[weapon_bone]
27 235.964890 -300.705902 0.000000 0.000000 -89.951546 -128.212341 382.234833
28 235.964890 -300.705902 0.000000 0.000000 -89.951546 -128.212341 382.234833
[Bip01_Head]
27 213.444214 185.715424 11.776953 4.962490 2.797846 -43.898743 283.173706
28 213.444183 185.715363 11.776951 4.962490 2.797846 -43.898743 283.173645
[eye_left_bone]
27 -24.626970 125.451866 -64.772606 0.000000 -90.000000 -99.840431 143.318359
28 -24.626970 125.451866 -64.772606 0.000000 -90.000000 -99.840431 143.318359
[eye_right_bone]
27 -24.626970 125.451866 64.327362 0.000000 -89.965736 80.156380 143.117676
28 -24.626970 125.451866 64.327362 0.000000 -89.965736 80.156380 143.117676
[L_forearm]
27 322.776093 0.000000 -0.000119 0.000272 -0.002331 -103.296722 322.776093
28 322.776093 0.000000 -0.000119 0.000316 -0.002326 -105.475136 322.776093
[L_front_hand]
27 241.149185 -0.042021 -3.300071 -178.667953 -1.835447 -27.422350 241.171753
28 241.149185 -0.042021 -3.300071 -178.667953 -1.835447 -27.422350 241.171753
[L_weapon_bone]
27 156.183838 0.000000 0.000000 0.000014 0.000007 0.000001 156.183838
28 156.183838 0.000000 0.000000 0.000014 0.000007 0.000001 156.183838
[L_front_hand01_01]
27 86.095154 20.947098 -0.655860 -0.366594 -0.477154 75.385574 88.609184
28 86.095154 20.947098 -0.655860 -0.366594 -0.477154 75.385574 88.609184
[L_front_hand02_01]
27 86.935165 -11.437475 24.513514 154.399796 -59.883835 -61.369587 91.046425
28 86.935165 -11.437475 24.513514 154.399796 -59.883835 -61.369587 91.046425
[L_front_hand03_01]
27 86.637497 -14.123976 -20.424902 -153.913849 58.118122 -62.702866 90.126129
28 86.637497 -14.123976 -20.424902 -153.913849 58.118122 -62.702866 90.126129
[L_front_hand01_02]
27 71.020905 -0.000179 0.000030 0.000334 -0.002323 -106.379684 71.020905
28 71.020905 -0.000179 0.000030 0.000334 -0.002323 -106.379684 71.020905
[L_front_hand02_02]
27 71.020927 -0.000119 0.000060 0.000334 -0.002323 -106.379684 71.020927
28 71.020927 -0.000119 0.000060 0.000334 -0.002323 -106.379684 71.020927
[L_front_hand03_02]
27 71.020905 -0.000060 0.000060 0.000334 -0.002323 -106.379684 71.020905
28 71.020905 -0.000060 0.000060 0.000334 -0.002323 -106.379684 71.020905
[R_forearm]
27 322.776428 -0.000060 0.000030 0.206767 0.040269 -101.889580 322.776428
28 322.776428 -0.000060 0.000030 0.209000 0.048118 -104.082664 322.776428
[R_front_hand]
27 238.847015 -0.006795 2.210259 -2.635298 -10.645461 -26.312506 238.857239
28 238.847015 -0.006795 2.210259 -2.635298 -10.645461 -26.312506 238.857239
[R_weapon_bone]
27 155.664093 0.002503 -0.000030 0.003487 0.001180 -90.988930 155.664078
28 155.664093 0.002503 -0.000030 0.003487 0.001180 -90.988930 155.664078
[R_front_hand01_01]
27 87.624611 14.231146 22.918642 -154.633499 -59.950619 61.746044 91.683487
28 87.624611 14.231146 22.918642 -154.633499 -59.950619 61.746044 91.683487
[R_front_hand02_01]
27 89.356956 14.367283 -19.491137 154.602661 58.302849 63.744389 92.579636
28 89.356956 14.367283 -19.491137 154.602661 58.302849 63.744389 92.579636
[R_front_hand03_01]
27 87.286232 -22.307278 -0.143439 0.162155 -0.423168 -75.767921 90.091743
28 87.286232 -22.307278 -0.143439 0.162155 -0.423168 -75.767921 90.091743
[R_front_hand01_02]
27 71.020905 0.000060 0.000119 0.002323 -0.000334 106.381714 71.020905
28 71.020905 0.000060 0.000119 0.002323 -0.000334 106.381714 71.020905
[R_front_hand02_02]
27 71.020844 -0.000030 -0.000119 0.002323 -0.000334 106.381714 71.020836
28 71.020844 -0.000030 -0.000119 0.002323 -0.000334 106.381714 71.020836
[R_front_hand03_02]
27 71.020905 0.000000 0.000030 0.002323 -0.000334 106.381714 71.020905
28 71.020905 0.000000 0.000030 0.002323 -0.000334 106.381714 71.020905
[null_rope01_connect]
27 328.732483 0.000000 -0.000238 -138.130005 -60.033367 -145.439209 328.732483
28 328.732483 0.000000 -0.000238 -144.008514 -61.682865 -137.127426 328.732483
[Rope1_Seg01]
27 -0.000038 -0.000114 0.000112 70.404312 -24.587124 -139.241791 0.000165
28 -0.000038 -0.000114 0.000113 56.829403 -16.670197 -126.308083 0.000165
[Rope1_Seg02]
27 139.999863 -0.000179 0.000000 -2.705659 10.864923 -10.087170 139.999863
28 139.999863 -0.000179 0.000000 -4.908209 7.730307 -3.793764 139.999863
[Rope1_Seg03]
27 139.999924 0.000060 -0.000060 -11.341044 14.882728 -11.314444 139.999924
28 139.999924 0.000060 -0.000060 -19.858135 13.923054 -1.804964 139.999924
[Rope1_Seg04]
27 139.999924 -0.000060 -0.000119 29.307076 -11.657011 -6.647326 139.999924
28 139.999924 -0.000060 -0.000119 10.364009 0.612305 -6.397051 139.999924
[Rope1_Seg05]
27 139.999832 0.000119 -0.000060 7.320024 -5.822765 0.214388 139.999832
28 139.999832 0.000119 -0.000060 25.120378 -7.934999 -6.091762 139.999832
[Rope1_Seg06]
27 139.999954 0.000119 -0.000060 3.150187 -2.772909 0.133248 139.999954
28 139.999954 0.000119 -0.000060 6.565122 -2.813644 -1.190472 139.999954
[Rope1_Seg07]
27 139.999985 0.000060 0.000000 1.557715 -1.514002 0.154200 139.999985
28 139.999985 0.000060 0.000000 3.710584 -1.807119 -0.531981 139.999985
[Rope1_Seg09]
27 121.602913 0.000119 -0.000089 -89.793175 -1.359789 0.847147 121.602913
28 121.602913 0.000119 -0.000089 -89.793175 -1.359789 0.847147 121.602913
[L_mid_hand01]
27 103.859421 1.038730 8.195221 130.544373 -67.584534 -38.866943 104.187431
28 103.859421 1.038730 8.195221 130.544373 -67.584534 -38.866943 104.187431
[L_mid_hand02]
27 105.572853 -4.139662 -10.864139 -168.923172 43.409309 -73.498886 106.211075
28 105.572853 -4.139662 -10.864139 -168.923172 43.409309 -73.498886 106.211075
[L_mid_hand03]
27 104.641464 17.579376 -3.913581 -6.012627 17.808174 74.893669 106.179977
28 104.641464 17.579376 -3.913581 -6.012629 17.808178 74.893669 106.179977
[null_rope02_connect]
27 328.732849 0.000179 -0.000119 -119.902199 57.968998 -9.238347 328.732849
28 328.732849 0.000179 -0.000119 -126.363403 61.480610 -16.666916 328.732849
[Rope2_Seg01]
27 0.000095 0.000113 0.000000 -30.657780 1.908907 -16.311890 0.000147
28 0.000101 0.000113 0.000000 14.442787 -6.671118 -38.073772 0.000152
[Rope2_Seg02]
27 139.999741 -0.000060 -0.000119 73.487007 10.735902 -37.579517 139.999756
28 139.999741 -0.000060 -0.000119 29.629147 -4.342205 -14.018215 139.999756
[Rope2_Seg03]
27 140.000107 0.000030 0.000000 46.679138 -22.749699 -31.783733 140.000107
28 140.000107 0.000030 0.000000 29.139715 -11.024535 -15.496861 140.000107
[Rope2_Seg04]
27 139.999802 0.000000 -0.000060 1.579167 -3.271802 -0.830281 139.999802
28 139.999802 0.000000 -0.000060 20.505548 -17.453478 -13.444926 139.999802
[Rope2_Seg05]
27 139.999985 -0.000060 0.000119 0.604383 -1.544789 -0.313163 139.999985
28 139.999985 -0.000060 0.000119 2.581614 -4.923291 -1.505734 139.999985
[Rope2_Seg06]
27 139.999893 -0.000030 -0.000119 0.329647 -0.967194 -0.184121 139.999893
28 139.999893 -0.000030 -0.000119 1.105082 -2.623529 -0.656898 139.999893
[Rope2_Seg07]
27 139.999893 0.000060 -0.000060 0.190266 -0.641096 -0.118104 139.999893
28 139.999893 0.000060 -0.000060 0.605581 -1.643360 -0.377998 139.999893
[Rope2_Seg09]
27 121.338966 0.000089 -0.000060 33.793236 -1.359788 -0.847141 121.338966
28 121.338966 0.000089 -0.000060 33.793236 -1.359788 -0.847141 121.338966
[R_mid_hand01]
27 104.680779 11.144459 -10.335981 -16.212063 45.237247 70.462852 105.778534
28 104.680779 11.144459 -10.335981 -16.212063 45.237247 70.462852 105.778534
[R_mid_hand02]
27 104.070427 2.443552 8.231699 49.067368 -67.749771 39.286453 104.424065
28 104.070427 2.443552 8.231699 49.067368 -67.749771 39.286453 104.424065
[R_mid_hand03]
27 106.028137 -11.221827 -5.996406 -177.101105 15.551026 -76.585571 106.788818
28 106.028137 -11.221827 -5.996406 -177.101105 15.551026 -76.585571 106.788818
[spine02]
27 129.756927 0.001550 0.000119 -0.270879 -4.051925 -4.052594 129.756927
28 129.756927 0.001550 0.000119 -0.045165 -4.060554 -7.201997 129.756927
[spine03]
27 78.614014 0.081871 -4.898979 1.518643 3.995907 10.959197 78.766556
28 78.614021 0.081792 -4.898985 1.653367 3.941951 12.918655 78.766556
[pelvis]
27 169.435242 0.051022 0.000000 -0.022995 -0.190700 2.924947 169.435257
28 169.435242 0.051022 0.000000 -0.039466 -0.189194 6.895263 169.435257
[null_rope03_connect]
27 -1.257226 -2.466202 137.391083 174.729630 -88.470177 -86.902954 137.418976
28 -1.257226 -2.466202 137.391083 168.905624 -88.789536 -91.083549 137.418976
[null_rope04_connect]
27 -1.259640 -2.480268 -137.844437 174.729630 -88.470177 -86.902954 137.872513
28 -1.259640 -2.480268 -137.844437 168.905624 -88.789536 -91.083549 137.872513
[Rope3_Seg01]
27 -0.000026 0.000030 0.000032 -132.242401 10.340911 -86.994621 0.000051
28 -0.000027 0.000033 0.000021 -135.411514 22.491442 -88.243507 0.000047
[Rope3_Seg02]
27 139.999924 -0.000119 0.000060 0.679927 0.011604 -7.511321 139.999924
28 139.999924 -0.000119 0.000060 0.917965 0.677407 -5.836585 139.999924
[Rope3_Seg03]
27 139.999924 -0.000119 0.000119 -6.211886 2.786407 -41.106956 139.999924
28 139.999924 -0.000119 0.000119 0.742376 1.698881 -14.179940 139.999924
[Rope3_Seg04]
27 139.999924 0.000119 0.000000 -0.796504 -27.248106 49.239841 139.999924
28 139.999924 0.000119 0.000000 -5.525925 3.055282 -31.811798 139.999924
[Rope3_Seg05]
27 139.999924 -0.000238 0.000060 -9.116624 -5.325079 37.946480 139.999924
28 139.999924 -0.000238 0.000060 -1.517395 -12.864921 50.356293 139.999924
[Rope3_Seg06]
27 139.999893 -0.000119 -0.000060 -1.473235 -1.350166 3.788963 139.999893
28 139.999893 -0.000119 -0.000060 -3.173883 -3.015595 14.121943 139.999893
[Rope3_Seg07]
27 139.999771 0.000060 -0.000119 0.098583 -0.295762 0.768030 139.999771
28 139.999771 0.000060 -0.000119 -1.498758 -1.530109 5.554073 139.999771
[Rope3_Seg08]
27 139.999985 -0.000060 0.000000 0.535788 0.001645 0.001689 139.999985
28 139.999985 -0.000060 0.000000 -0.612509 -0.844293 2.781095 139.999985
[Rope3_Seg09]
27 90.185997 -0.000179 -0.000060 89.793228 -1.359877 -0.847183 90.185997
28 90.185997 -0.000179 -0.000060 89.793228 -1.359877 -0.847183 90.185997
[R_rear_hand01]
27 103.366196 -6.073594 -10.757982 -177.714203 24.565960 -73.910950 104.101845
28 103.366196 -6.073594 -10.757982 -177.714203 24.565960 -73.910950 104.101845
[R_rear_hand02]
27 100.509819 12.039542 -7.992327 -12.874829 36.868488 72.167213 101.543350
28 100.509819 12.039542 -7.992327 -12.874829 36.868488 72.167213 101.543350
[R_rear_hand03]
27 101.539970 5.215704 5.435467 71.484581 -71.816628 21.513813 101.819031
28 101.539970 5.215704 5.435467 71.484581 -71.816643 21.513824 101.819031
[Rope4_Seg01]
27 0.000011 -0.000038 -0.000200 48.220642 -0.104360 -120.363464 0.000204
28 0.000010 -0.000038 -0.000184 45.068489 12.943552 -119.568771 0.000188
[Rope4_Seg02]
27 139.999985 0.000060 0.000119 0.447538 13.109703 5.047884 139.999985
28 139.999985 0.000060 0.000119 0.725796 8.921970 6.028851 139.999985
[Rope4_Seg03]
27 139.999924 0.000000 -0.000238 1.783915 19.796997 10.473774 139.999924
28 139.999924 0.000000 -0.000238 0.818338 13.003807 9.248938 139.999924
[Rope4_Seg04]
27 139.999985 0.000000 0.000119 0.522101 23.281038 15.689843 139.999985
28 139.999985 0.000000 0.000119 -1.733524 25.387997 25.069515 139.999985
[Rope4_Seg05]
27 139.999802 -0.000060 -0.000119 11.456016 -10.304502 -20.531466 139.999802
28 139.999802 -0.000060 -0.000119 7.828071 -2.106432 -10.190416 139.999802
[Rope4_Seg06]
27 139.999924 0.000000 0.000060 7.738039 -22.879498 -25.626982 139.999924
28 139.999924 0.000000 0.000060 14.167312 -22.671724 -33.875298 139.999924
[Rope4_Seg07]
27 139.999802 0.000000 0.000000 -0.066437 -6.467243 -7.043025 139.999802
28 139.999802 0.000000 0.000000 0.637033 -8.444510 -9.393967 139.999802
[Rope4_Seg08]
27 139.999924 0.000000 0.000119 -1.891905 -3.149525 -3.504671 139.999924
28 139.999924 0.000000 0.000119 -1.729708 -3.393276 -3.891767 139.999924
[Rope4_Seg09]
27 90.185791 0.000060 0.000060 -135.617828 2.228885 0.850567 90.185791
28 90.185791 0.000060 0.000060 -135.617828 2.228885 0.850567 90.185791
[L_rear_hand01]
27 101.696655 -8.392275 -7.654577 -12.874829 -36.868488 107.832764 102.329041
28 101.696655 -8.392275 -7.654577 -12.874829 -36.868488 107.832764 102.329041
[L_rear_hand02]
27 102.726799 -1.568258 5.773216 71.484581 71.816628 158.486160 102.900848
28 102.726799 -1.568258 5.773216 71.484581 71.816643 158.486160 102.900848
[L_rear_hand03]
27 104.552910 9.721220 -10.420293 -177.714203 -24.565960 -106.089035 105.519653
28 104.552910 9.721220 -10.420293 -177.714203 -24.565960 -106.089035 105.519653
